<?xml version="1.0" encoding="UTF-8"?>
<svg version="1.1" xmlns="http://www.w3.org/2000/svg" width="77" height="75">
<path d="M0 0 C9.10959165 -0.02312545 18.21917326 -0.04091612 27.3287878 -0.05181217 C31.55831371 -0.05704056 35.7878196 -0.0641374 40.01733398 -0.07543945 C44.09568543 -0.08626991 48.17401757 -0.09227717 52.25238228 -0.09487724 C53.81177639 -0.09673121 55.3711694 -0.10035127 56.93055534 -0.10573006 C59.10729162 -0.11294262 61.28394714 -0.11399085 63.46069336 -0.11352539 C65.32267616 -0.11685631 65.32267616 -0.11685631 67.22227478 -0.12025452 C70 0 70 0 71 1 C71.09429342 3.17805719 71.11742538 5.3592128 71.11352539 7.53930664 C71.11367142 8.22220261 71.11381744 8.90509857 71.1139679 9.60868835 C71.11326876 11.87587614 71.1054764 14.14298274 71.09765625 16.41015625 C71.09579207 17.97814387 71.09436817 19.54613207 71.09336853 21.11412048 C71.08954334 25.24876503 71.07971306 29.38337466 71.06866455 33.51800537 C71.05845044 37.73400398 71.05387091 41.95000822 71.04882812 46.16601562 C71.03809079 54.44402647 71.02101436 62.7220089 71 71 C61.89040835 71.02312545 52.78082674 71.04091612 43.6712122 71.05181217 C39.44168629 71.05704056 35.2121804 71.0641374 30.98266602 71.07543945 C26.90431457 71.08626991 22.82598243 71.09227717 18.74761772 71.09487724 C17.18822361 71.09673121 15.6288306 71.10035127 14.06944466 71.10573006 C11.89270838 71.11294262 9.71605286 71.11399085 7.53930664 71.11352539 C5.67732384 71.11685631 5.67732384 71.11685631 3.77772522 71.12025452 C1 71 1 71 0 70 C-0.09429342 67.82194281 -0.11742538 65.6407872 -0.11352539 63.46069336 C-0.11367142 62.77779739 -0.11381744 62.09490143 -0.1139679 61.39131165 C-0.11326876 59.12412386 -0.1054764 56.85701726 -0.09765625 54.58984375 C-0.09579207 53.02185613 -0.09436817 51.45386793 -0.09336853 49.88587952 C-0.08954334 45.75123497 -0.07971306 41.61662534 -0.06866455 37.48199463 C-0.05845044 33.26599602 -0.05387091 29.04999178 -0.04882812 24.83398438 C-0.03809079 16.55597353 -0.02101436 8.2779911 0 0 Z " fill="#FEFEFE" transform="translate(4,2)"/>
<path d="M0 0 C14.52 0 29.04 0 44 0 C44 0.33 44 0.66 44 1 C40.48028532 1.48761328 36.95905847 1.96340165 33.4375 2.4375 C32.46619141 2.57220703 31.49488281 2.70691406 30.49414062 2.84570312 C22.29698985 3.94043662 14.3063583 4.44624278 6 5 C6 20.84 6 36.68 6 53 C17.22 53 28.44 53 40 53 C40 49.7 40 46.4 40 43 C40.16741989 41.13789902 40.37547896 39.27809685 40.65625 37.4296875 C40.85927734 36.05683594 40.85927734 36.05683594 41.06640625 34.65625 C41.20949219 33.7384375 41.35257813 32.820625 41.5 31.875 C41.64308594 30.91851562 41.78617188 29.96203125 41.93359375 28.9765625 C42.28258145 26.64997784 42.63812333 24.32460844 43 22 C43.33 22 43.66 22 44 22 C44 34.21 44 46.42 44 59 C29.48 59 14.96 59 0 59 C0 39.53 0 20.06 0 0 Z " fill="#2C59A7" transform="translate(15,8)"/>
<path d="M0 0 C-0.61358142 8.80171974 -2.29549385 17.35954742 -4 26 C-6.00993705 22.98509443 -6.72623341 20.7850073 -7.625 17.3125 C-7.88539062 16.31863281 -8.14578125 15.32476562 -8.4140625 14.30078125 C-8.60742188 13.54152344 -8.80078125 12.78226563 -9 12 C-9.83144531 11.95101562 -10.66289063 11.90203125 -11.51953125 11.8515625 C-12.60621094 11.77679688 -13.69289063 11.70203125 -14.8125 11.625 C-15.89144531 11.55539063 -16.97039063 11.48578125 -18.08203125 11.4140625 C-21 11 -21 11 -24 9 C-2.8647541 0 -2.8647541 0 0 0 Z " fill="#3AB853" transform="translate(57,25)"/>
<path d="M0 0 C1.02451301 3.23392606 0.95041862 5.64525388 0.44140625 8.984375 C0.30283203 9.91894531 0.16425781 10.85351562 0.02148438 11.81640625 C-0.20571289 13.26853516 -0.20571289 13.26853516 -0.4375 14.75 C-0.58509766 15.73355469 -0.73269531 16.71710937 -0.88476562 17.73046875 C-1.24958978 20.15478412 -1.62156746 22.57777798 -2 25 C-2.99 25 -3.98 25 -5 25 C-4.09495828 16.32224704 -3.21443909 8.18220858 0 0 Z " fill="#D4E5E4" transform="translate(58,26)"/>
</svg>
