<?xml version="1.0" encoding="UTF-8"?>
<svg version="1.1" xmlns="http://www.w3.org/2000/svg" width="1500" height="1500">
<path d="M0 0 C495 0 990 0 1500 0 C1500 495 1500 990 1500 1500 C1005 1500 510 1500 0 1500 C0 1005 0 510 0 0 Z " fill="#FEFEFE" transform="translate(0,0)"/>
<path d="M0 0 C315.48 0 630.96 0 956 0 C956 0.66 956 1.32 956 2 C927.89812692 5.79058958 899.72552262 9.00370711 871.56015405 12.27948552 C866.40696247 12.87885847 861.25387511 13.4791211 856.10084534 14.07988358 C782.93019213 22.61005415 709.75084479 31.06536744 636.57125759 39.51848435 C623.87266586 40.98533159 611.17411221 42.45250806 598.47558594 43.91992188 C597.11023552 44.07769856 597.11023552 44.07769856 595.71730226 44.23866265 C585.75861383 45.38947183 575.79993261 46.54034344 565.84125519 47.69124794 C563.20235968 47.99621889 560.56346415 48.30118967 557.92456859 48.60616021 C556.18560554 48.80712835 554.44664261 49.00809758 552.70767981 49.2090679 C541.80286361 50.46932314 530.89801688 51.72931383 519.9931345 52.98899627 C514.55603983 53.61706958 509.11895888 54.24526159 503.6818822 54.87349068 C500.10221375 55.28709776 496.52253839 55.70064489 492.94284439 56.11403084 C466.6492146 59.09913386 466.6492146 59.09913386 440.3940773 62.39754391 C428.55193699 63.97620648 416.70520103 65.38775095 404.82044172 66.60267842 C384.55020743 68.67975107 364.30926234 70.99247742 344.06951809 73.3453629 C339.40420103 73.88725709 334.73861341 74.42681273 330.07305908 74.96665955 C321.27591569 75.98490492 312.47900118 77.00511309 303.68217587 78.02610248 C293.74646532 79.17918104 283.81050222 80.33007604 273.87451506 81.48076832 C259.98736451 83.08906014 246.10030969 84.69817323 232.2134409 86.30889606 C219.57883599 87.77436644 206.94418096 89.2393915 194.30883789 90.69848633 C193.31854206 90.81293374 192.32824623 90.92738115 191.30794144 91.04529667 C184.54383215 91.82567887 177.77811503 92.59128431 171.01171875 93.3515625 C169.11393043 93.56508763 167.21614373 93.7786271 165.31835938 93.9921875 C162.46162315 94.31355478 159.60481598 94.63422908 156.74780273 94.953125 C153.89805034 95.27147486 151.04861285 95.59252367 148.19921875 95.9140625 C147.3441423 96.00885895 146.48906586 96.1036554 145.608078 96.20132446 C144.81146255 96.29166962 144.01484711 96.38201477 143.1940918 96.47509766 C142.50196091 96.55265289 141.80983002 96.63020813 141.09672546 96.71011353 C138.71504832 97.0393965 136.35764168 97.52847166 134 98 C130.37 98 126.74 98 123 98 C123 440.54 123 783.08 123 1136 C360.93 1136 598.86 1136 844 1136 C844.33 1131.38 844.66 1126.76 845 1122 C845.30708932 1119.14848511 845.62959335 1116.3168179 846.00878906 1113.47631836 C846.15368302 1112.3526129 846.15368302 1112.3526129 846.30150414 1111.20620632 C846.6191182 1108.75024714 846.94235507 1106.29506429 847.265625 1103.83984375 C847.49778975 1102.05307656 847.72957994 1100.26626067 847.96102905 1098.47940063 C848.45848743 1094.64458545 848.95839564 1090.81010084 849.46026611 1086.9758606 C850.26582923 1080.8209412 851.06575548 1074.66529708 851.86474609 1068.50952148 C852.70872378 1062.00895171 853.55301873 1055.50842417 854.3991394 1049.00813293 C857.22149107 1027.32401987 860.01508015 1005.63623666 862.80386353 983.94778442 C863.62874504 977.53275128 864.45435265 971.1178117 865.2800293 964.70288086 C868.64989173 938.5189464 872.00987036 912.33375659 875.36377335 886.14777374 C878.83128448 859.07569019 882.31771143 832.00607517 885.8125 804.9375 C886.06387375 802.9904684 886.31524704 801.04343675 886.56661987 799.09640503 C886.69140119 798.12990115 886.8161825 797.16339727 886.94474506 796.1676054 C887.58167893 791.23413612 888.21858857 786.30066371 888.85546875 781.3671875 C888.98299467 780.37933573 889.11052059 779.39148396 889.24191093 778.37369728 C892.3748409 754.10397219 895.5009217 729.83336593 898.625 705.5625 C898.76213913 704.49711376 898.89927826 703.43172752 899.04057312 702.33405685 C902.82419142 672.93980707 906.59865114 643.54439791 910.36377335 614.14777374 C914.2013778 584.18624096 918.06259356 554.22778117 921.93190479 524.27032757 C922.56276167 519.38595859 923.19352276 514.50157725 923.82421875 509.6171875 C923.95077284 508.63711039 924.07732693 507.65703327 924.20771599 506.64725685 C926.18653755 491.32068574 928.15895973 475.99329782 930.12815666 460.66548729 C930.57928318 457.15420177 931.03053379 453.64293222 931.48182678 450.13166809 C931.77914539 447.818329 932.0764629 445.50498977 932.3737793 443.19165039 C932.51981 442.05544156 932.6658407 440.91923273 932.81629658 439.74859333 C933.67795141 433.04362647 934.53872104 426.33854668 935.39885616 419.6333847 C935.93362744 415.46617819 936.46921008 411.29907623 937.00499535 407.13199997 C937.25241331 405.2063179 937.49948782 403.28059167 937.74617958 401.35481644 C939.08672512 390.89110627 940.46721872 380.43762987 942 370 C942.33 370 942.66 370 943 370 C943 663.04 943 956.08 943 1258 C743.8553125 1258.2475 743.8553125 1258.2475 540.6875 1258.5 C498.99752686 1258.55220703 457.30755371 1258.60441406 414.35424805 1258.65820312 C362.85900878 1258.72167969 362.85900878 1258.72167969 338.63850403 1258.75134277 C320.88735403 1258.77313743 303.13620472 1258.79542316 285.38505567 1258.81797046 C267.11750548 1258.84116073 248.84995462 1258.86374556 230.58240305 1258.88581869 C219.96238589 1258.89866679 209.34236909 1258.9116929 198.7223535 1258.92579048 C132.48148698 1259.01293545 66.24102836 1259 0 1259 C0 843.53 0 428.06 0 0 Z " fill="#1A4BA0" transform="translate(225,121)"/>
<path d="M0 0 C-3.99713236 26.98138486 -8.16230175 53.93277739 -12.45117331 80.86923742 C-13.27325756 86.03502216 -14.09324571 91.2011397 -14.91348267 96.36721802 C-16.31643412 105.20180537 -17.72052884 114.03621031 -19.12545776 122.8704834 C-21.34858575 136.8498861 -23.56920055 150.82968742 -25.78930664 164.80957031 C-26.16536037 167.17751568 -26.54141418 169.54546103 -26.91746807 171.91340637 C-27.48198442 175.46808193 -28.04649658 179.02275815 -28.61099571 182.57743645 C-29.74124268 189.69458672 -30.87166689 196.81170881 -32.00223416 203.92880821 C-37.91255348 241.1354344 -43.80890449 278.34425088 -49.69254112 315.55510521 C-51.30547154 325.75573021 -52.91987595 335.95612092 -54.53530288 346.15635085 C-55.64880311 353.18752482 -56.7619466 360.21875528 -57.875 367.25 C-57.99691412 368.02010611 -58.11882825 368.79021222 -58.24443674 369.58365488 C-61.6683284 391.21271552 -65.07832823 412.84392758 -68.47667599 434.47701645 C-70.9079814 449.95364286 -73.34455164 465.42943507 -75.78452396 480.90469742 C-77.39434902 491.11667457 -78.99903882 501.32943265 -80.59706461 511.54326296 C-81.67740483 518.44555542 -82.76360577 525.34690899 -83.85448968 532.24754286 C-84.48523905 536.23880186 -85.11318691 540.2304527 -85.73402405 544.2232666 C-86.30363826 547.88636005 -86.88070809 551.54819572 -87.46386731 555.20915651 C-87.7744579 557.17186521 -88.0768814 559.13586085 -88.37907314 561.09988022 C-88.65705793 562.83076574 -88.65705793 562.83076574 -88.94065857 564.59661865 C-89.09807746 565.59895412 -89.25549635 566.6012896 -89.41768551 567.63399887 C-90 570 -90 570 -92 572 C-94.49836731 571.89607239 -94.49836731 571.89607239 -97 571 C-98.20146179 569.14164734 -98.20146179 569.14164734 -99.02612305 566.6628418 C-99.51008797 565.25986092 -99.51008797 565.25986092 -100.00382996 563.82853699 C-100.33643326 562.79586197 -100.66903656 561.76318695 -101.01171875 560.69921875 C-101.37715286 559.62203079 -101.74258698 558.54484283 -102.11909485 557.43501282 C-103.32772886 553.85864197 -104.50717955 550.27330456 -105.6875 546.6875 C-106.53100015 544.17699313 -107.37673387 541.66723569 -108.22460938 539.15820312 C-109.75482276 534.62692201 -111.27859831 530.09358301 -112.79382515 525.55726814 C-116.41086999 514.73170287 -120.14657048 503.94828266 -123.89807129 493.16870117 C-125.76210336 487.80849907 -127.61700469 482.44513911 -129.47265625 477.08203125 C-129.84329193 476.01131378 -130.21392761 474.94059631 -130.59579468 473.83743286 C-137.27683214 454.53619577 -143.94149219 435.22929275 -150.60888672 415.92333984 C-152.99019657 409.02819479 -155.37197947 402.13321321 -157.75390625 395.23828125 C-158.14571579 394.10410263 -158.53752533 392.96992401 -158.94120789 391.80137634 C-160.91601842 386.08491307 -162.89092853 380.36848421 -164.8659668 374.65209961 C-168.46718092 364.22872957 -172.06767043 353.80511171 -175.66487122 343.38035583 C-185.72213393 314.23443829 -195.81976919 285.10321149 -206 256 C-253.12316113 248.09560224 -253.12316113 248.09560224 -300.29116821 240.46456909 C-318.85215917 237.51731649 -337.39730057 234.47829351 -355.94088745 231.4236145 C-374.74034382 228.32911528 -393.55190198 225.32202321 -412.375 222.375 C-430.52839719 219.53235295 -448.65566655 216.57197447 -466.76315308 213.45037842 C-490.14130141 209.4214762 -513.56829289 205.7026413 -537 202 C-536.67 201.01 -536.34 200.02 -536 199 C-533.20061358 197.71115731 -530.47443135 196.61926535 -527.58203125 195.578125 C-526.68733124 195.24563751 -525.79263123 194.91315002 -524.87081909 194.57058716 C-521.85525992 193.45290101 -518.833945 192.35166592 -515.8125 191.25 C-513.6692686 190.45895266 -511.52645534 189.66677163 -509.3840332 188.87353516 C-504.73895737 187.15558483 -500.0915246 185.44422026 -495.44238281 183.73730469 C-487.79623937 180.92821272 -480.15903443 178.09540851 -472.5234375 175.2578125 C-469.89324296 174.28056183 -467.26302687 173.30336917 -464.6328125 172.32617188 C-463.65248613 171.96192171 -463.65248613 171.96192171 -462.65235519 171.59031296 C-456.01240565 169.1234937 -449.37048662 166.66199657 -442.72840118 164.20093536 C-429.75300627 159.39316116 -416.78065887 154.57726078 -403.8125 149.75 C-402.96376312 149.43406891 -402.11502625 149.11813782 -401.24057007 148.79263306 C-396.06124945 146.8645307 -390.88217583 144.93576564 -385.70318604 143.0067749 C-382.90553247 141.9648165 -380.10780481 140.92305726 -377.31005859 139.88134766 C-349.048046 129.3581469 -320.79165434 118.81991322 -292.5374527 108.27576351 C-288.95205709 106.93773441 -285.36665634 105.59971909 -281.78125 104.26171875 C-280.71903481 103.86532165 -280.71903481 103.86532165 -279.63536072 103.46091652 C-266.12477995 98.41911732 -252.61308231 93.38031763 -239.10098267 88.34259033 C-231.82554285 85.63001544 -224.55025689 82.91702791 -217.27494812 80.20410156 C-210.87824415 77.81884796 -204.48144153 75.43385946 -198.08447266 73.04931641 C-167.82935913 61.7711849 -137.58020642 50.47741255 -107.34783936 39.13842773 C-103.59252134 37.72996116 -99.83701723 36.32199154 -96.08146477 34.91415024 C-81.70675591 29.52523664 -67.33468388 24.12952248 -52.97157288 18.70976257 C-47.69719643 16.71959851 -42.42165715 14.7325255 -37.14583492 12.7461977 C-32.89090631 11.14387723 -28.63765071 9.53721611 -24.38561249 7.92724228 C-22.40995266 7.18005603 -20.43346615 6.4351103 -18.45657349 5.69119263 C-16.05619496 4.7879058 -13.6571653 3.88102341 -11.25973511 2.96994019 C-10.20811188 2.57549713 -9.15648865 2.18105408 -8.07299805 1.7746582 C-6.70331123 1.25727837 -6.70331123 1.25727837 -5.30595398 0.72944641 C-3 0 -3 0 0 0 Z " fill="#2FB449" transform="translate(1131,485)"/>
</svg>
